<?xml version="1.0" encoding="UTF-8" standalone="no"?>
<!-- Created with Inkscape (http://www.inkscape.org/) -->

<svg
   width="100mm"
   height="100mm"
   viewBox="0 0 100 100"
   version="1.1"
   id="svg1"
   xml:space="preserve"
   inkscape:version="1.3.2 (091e20ef0f, 2023-11-25)"
   sodipodi:docname="river logo.svg"
   xmlns:inkscape="http://www.inkscape.org/namespaces/inkscape"
   xmlns:sodipodi="http://sodipodi.sourceforge.net/DTD/sodipodi-0.dtd"
   xmlns="http://www.w3.org/2000/svg"
   xmlns:svg="http://www.w3.org/2000/svg"><sodipodi:namedview
     id="namedview1"
     pagecolor="#ffffff"
     bordercolor="#000000"
     borderopacity="0.25"
     inkscape:showpageshadow="false"
     inkscape:pageopacity="0.0"
     inkscape:pagecheckerboard="false"
     inkscape:deskcolor="#ffffff"
     inkscape:document-units="mm"
     inkscape:zoom="1.3392273"
     inkscape:cx="190.03495"
     inkscape:cy="196.75525"
     inkscape:window-width="1900"
     inkscape:window-height="1023"
     inkscape:window-x="20"
     inkscape:window-y="20"
     inkscape:window-maximized="0"
     inkscape:current-layer="layer1"
     showgrid="false"
     showborder="false"
     borderlayer="false" /><defs
     id="defs1" /><g
     inkscape:label="Layer 1"
     inkscape:groupmode="layer"
     id="layer1"><path
       id="rect1"
       style="fill:#000000;fill-opacity:1;stroke:none;stroke-width:0.607666;stroke-dasharray:none;stroke-opacity:1"
       d="m 49.290197,0 c 0,0 11.267796,5.4356117 17.675624,13.689211 6.407828,8.253599 5.704515,23.923753 -3.402581,31.018907 -9.107095,7.095154 -14.07783,5.716312 -18.81145,12.521022 -4.73361,6.80472 3.992534,12.184118 10.064434,15.969428 6.07187,3.78531 14.698032,10.964702 18.592672,16.425802 2.676,3.75233 4.28395,7.9989 5.07008,10.37563 h 21.52102 V 0 Z M 0,7.5049577 V 100 H 33.599526 C 38.278136,94.12106 40.335749,87.657133 36.431639,82.130253 32.235179,76.189503 29.690821,73.359236 26.372776,66.49689 23.717439,61.005148 25.687415,53.719168 29.016598,49.748926 32.345781,45.778683 34.691329,44.2102 37.203953,42.788758 44.381479,38.728286 54.254331,35.318622 53.476231,27.689312 52.698131,20.060022 48.471551,17.18099 38.200531,13.11471 27.929511,9.0484304 0,7.5049577 0,7.5049577 Z"
       sodipodi:nodetypes="czzssscccccccsszsszc" /></g></svg>
