<svg xmlns="http://www.w3.org/2000/svg" viewBox="0 0 120 120">
  <path d="M59.29 10s11.268 5.436 17.676 13.69c6.408 8.253 5.704 23.923-3.403 31.018-9.107 7.095-14.078 5.716-18.811 12.521-4.734 6.805 3.992 12.184 10.064 15.97 6.072 3.785 14.698 10.964 18.593 16.425 2.676 3.753 4.284 8 5.07 10.376H110V10ZM10 17.505V110h33.6c4.678-5.879 6.736-12.343 2.832-17.87-4.197-5.94-6.741-8.77-10.06-15.633-2.655-5.492-.685-12.778 2.645-16.748 3.329-3.97 5.674-5.539 8.187-6.96 7.177-4.06 17.05-7.47 16.272-15.1-.778-7.629-5.004-10.508-15.275-14.574C37.93 19.048 10 17.505 10 17.505Z"/>
</svg>
